<?xml version="1.0" encoding="UTF-8"?>
<svg id="Layer_2" data-name="Layer 2" xmlns="http://www.w3.org/2000/svg" viewBox="0 0 140.52 95.6">
  <g id="Layer_1-2" data-name="Layer 1">
    <g>
      <path d="M102.01,95.52l-62.78.08c-5.83,0-6.61-4.44-6.92-8.9-1.4-20.02,11.38-38.31,31.45-41.19,12.4-1.78,23.59,1.61,32.42,9.4s12.91,19.27,12.43,31.99c-.15,3.89-1.01,8.61-6.61,8.62ZM103.43,91.16c3.41-16.34-4.55-32.74-19.49-38.96-15.25-6.35-32.86-1.89-41.98,12.38-5.06,7.92-6.32,17.36-4.43,26.65l65.9-.07Z"/>
      <path d="M67.88.15c11.67-1.4,21.38,7.14,22.56,17.42,1.3,11.28-6.47,21.47-17.34,22.9-10.87,1.43-20.86-6.22-22.6-16.7S55.95,1.58,67.88.15ZM65.97,5.15c-9.3,2.97-13.38,12.13-10.37,20.62,2.67,7.53,11.3,12.21,19.28,9.59s13.06-11.2,10.54-19.66c-2.31-7.75-10.55-13.4-19.45-10.56Z"/>
      <path d="M4.95,74.7c4.72.97,12.64-1.05,14.35,1.36,3.49,4.93-15.67,3.3-18.14,2.11-4.36-14.13,3.91-29.56,18.76-32.33,7.52-1.4,15.51-.19,21.3,4.7,1.04.88-1.7,3.37-2.87,2.65-4.71-2.88-9.88-4.02-15.57-3.43-12.3,1.26-20.3,12.85-17.82,24.94Z"/>
      <path d="M139.21,77.52c-2.39,2.21-18.31,2.68-18.33-.13,0-.67.24-2.17,1.37-2.21l13.82-.46c1.16-8.28-1.79-16.75-7.91-21.12-13.79-9.85-25.75.63-27.2-.33-6.11-4.1,7.67-7.95,14.91-7.9,15.22.09,26.14,12.36,24.48,27.47-.19,1.78.16,3.48-1.15,4.69Z"/>
      <path d="M113.86,14.35c7.9-.91,13.76,4.74,14.65,11.27,1.02,7.42-4.25,14.03-11.35,15.04s-13.57-4.09-14.69-11,3.35-14.38,11.39-15.31ZM111.96,19.27c-5.15,2.26-6.5,7.8-4.39,12.16,1.94,4,6.99,6.1,10.98,4.36,4.7-2.05,6.73-6.88,5.07-11.39-1.58-4.28-6.61-7.34-11.66-5.12Z"/>
      <path d="M31.15,39.54c-4.91,2.63-10.02,1.01-13.7-1.88s-5.42-7.8-4.53-12.96c1.1-6.39,6.64-10.2,12.48-10.46,6.16-.27,11.2,3.62,12.98,9.71,1.63,5.61-1.01,12.25-7.23,15.59ZM22,19.5c-4.97,2.26-5.98,7.95-4.04,11.97s7.31,5.6,10.62,4.18c5.17-2.21,6.62-7.11,5.22-11.24-1.57-4.65-6.84-7.17-11.8-4.91Z"/>
    </g>
  </g>
</svg>