<?xml version="1.0" encoding="UTF-8"?>
<svg id="Layer_2" data-name="Layer 2" xmlns="http://www.w3.org/2000/svg" viewBox="0 0 97.86 118.78">
  <g id="Layer_1-2" data-name="Layer 1">
    <g>
      <path d="M91.25,118.78l-84.34-.1c-3.51,0-6.82-3.77-6.82-7.34L.04,9.63C-.42,4.56,2.97.02,8.12.02l57.23-.02,32.43,32.35.1,78.22c0,4.04-2.31,7.17-6.61,8.21ZM93.49,110.46l-.17-74.8h-25.47c-2.19-.02-5.11-.75-5.37-3.29-.93-9.31,0-18.19-.33-28.01l-55.01.17c-1.79,0-2.61,2.63-2.61,4.14l.05,101.88c0,2.05,1.44,3.94,3.5,3.94l81.78-.02c2.26,0,3.62-1.94,3.62-4.01ZM89.92,30.81l-23.01-22.85c-.98,8.44-.38,15.59-.23,23.38,8.43-.28,15.67.47,23.24-.54Z"/>
      <path d="M51.35,50.64c.04,5.5-26.31,2.1-31.72,2.42l-.33-28.47c-.02-1.7.87-3.55,2.76-3.52,9.76.15,19.11-.44,29.06.28l.23,29.3ZM46.93,49.19l-.09-23.68-23-.03.08,23.73,23-.02Z"/>
      <path d="M76.81,82.82l-54.84.13c-1.42,0-2.39-.99-2.52-1.83-.15-1,.44-1.81,1.73-2.71l55.56.13c1.16,0,1.75,1.14,2.02,1.63.37.67-.52,2.63-1.95,2.64Z"/>
      <path d="M76.38,98.05l-54.45.05c-1.45,0-2.4-1.08-2.49-1.97-.1-.99.84-2.51,2.58-2.51h54.77c1.16,0,1.75,1.08,1.99,1.59.32.7-.35,2.84-2.4,2.84Z"/>
      <path d="M76.76,67.65l-54.76-.02c-1.48,0-2.33-.87-2.47-1.54-.28-1.36.71-2.69,2.48-2.69h54.8c1.17,0,1.77,1.28,1.98,1.8.3.74-.61,2.45-2.04,2.45Z"/>
      <path d="M78.45,50.33c5.34,3.74-18.54,4.55-19.58,1.65-.4-1.11.31-2.69,2.06-2.71l15.05-.13c1.05,0,1.96.83,2.46,1.18Z"/>
    </g>
  </g>
</svg>