<?xml version="1.0" encoding="UTF-8"?>
<svg id="Layer_2" data-name="Layer 2" xmlns="http://www.w3.org/2000/svg" viewBox="0 0 112.45 100.51">
  <g id="Layer_1-2" data-name="Layer 1">
    <path d="M98.03,100.08l-80.45.43C8.22,100.56,0,94.04,0,84.41V31.53c.01-8.53,7.33-14.77,15.49-15.34,4.75-.33,9.06.68,13.75-.6-1.05-6.37,1.19-14.64,8.37-15.08,12.32-.76,24.57-.58,36.94-.1,7.26.29,10.13,8.56,8.63,15.3,4.91,1.13,9.32.09,14.61.55,7.02.61,14.66,6.43,14.64,14.17l-.13,56.12c-.02,6.66-7.1,13.49-14.29,13.53ZM78.32,15.93c2.29-2.68.79-11.03-3.77-11.27-12.31-.67-24.58-.92-36.84.07-4.76.38-5.03,7.74-3.74,11.31l44.34-.1ZM64.86,49.62c2.1.46,1.44,4.27,2.02,5.85l28.81.22c5.37.04,11.29-2.98,12.28-8.58.85-4.79.11-9.68.22-14.7.14-6.48-5.01-11.89-11.64-11.89l-79.96-.06c-5.82,0-11.43,4.04-11.91,9.9-.45,5.47-.4,10.66-.03,16.07s5.6,9.25,10.93,9.21l29.65-.23c.71-2.09.24-6.08,3.23-6.14,5.33-.11,10.8-.89,16.41.34ZM62.13,64.76c.51-4.25.56-7.36.22-11.26-4.33-.59-8.36-.81-12.48-.13-.31,4.25-.51,7.69.26,11.44,4.11.61,7.83.59,12-.05ZM66.66,60.48c-.2,3.09.29,7.1-2.88,8.1-4.64,1.46-10.75,1.49-15.38.07-3.26-1-2.79-5.2-2.97-8.11-11.44-1.81-33.96,3.07-40.76-4.98l-.2,29.01c-.04,6.32,4.98,11.44,11.38,11.45l79.66.13c6.51.01,12.33-4.02,12.58-10.89.36-10.09.24-19.73-.03-30.06-8.23,8.63-29.38,3.6-41.4,5.29Z"/>
  </g>
</svg>