<?xml version="1.0" encoding="UTF-8"?>
<svg id="Layer_2" data-name="Layer 2" xmlns="http://www.w3.org/2000/svg" viewBox="0 0 101.83 120.27">
  <g id="Layer_1-2" data-name="Layer 1">
    <g>
      <path d="M99.69,120.27l-96.89-.17c-4.11,0-6.1-29.51,11.73-46.19s43.78-18.78,63.98-6.75c16.19,9.65,24.56,26.43,23.16,45-.21,2.82,1.05,5.58-1.98,8.11ZM96.96,116.02c2.77-17.51-4.35-33.86-18.54-43.61-11.14-7.68-24.27-9.81-37.54-7.27C16.66,69.76,1.41,91.56,5.13,116.07l91.83-.06Z"/>
      <path d="M60.86,52.15c-13.7,5.74-28.88-1.25-34.67-14.03-6.01-13.26-.36-29.02,13.2-35.44,14.07-6.67,30.36-.39,36.48,13.7s-.05,29.5-15.01,35.77ZM46.7,4.81c-13.06,2.8-20.55,15.16-17.76,27.46,2.6,11.49,14.53,19.7,26.52,17.06,11.85-2.61,20.2-14.2,17.87-26.52-2.19-11.59-13.82-20.75-26.63-18Z"/>
      <path d="M63.1,99.18c-3.56,3.29-10.66,13.82-14.36,10.12l-9.85-9.83,6.36-27.87c4.15.46,7.16.72,11.2,0l6.65,27.58ZM58.34,97.83c-1.79-7.08-2.87-13.92-5.18-20.3-.37-1.03-4.32-.77-4.65.28-2.1,6.57-3.32,13.34-4.87,20.15l7.17,7.26c2.87-2.24,5.32-4.37,7.55-7.39Z"/>
    </g>
  </g>
</svg>