<?xml version="1.0" encoding="UTF-8"?>
<svg id="Layer_2" data-name="Layer 2" xmlns="http://www.w3.org/2000/svg" viewBox="0 0 120.14 85.57">
  <g id="Layer_1-2" data-name="Layer 1">
    <path d="M114.41,85.57H7.13C2.93,85.57,0,82.72,0,78.54L.06,5.66C.06,2.23,2.95.41,6.17.09L113.98,0c3.22,0,6.12,2.26,6.13,5.63l.04,72.93c0,3.39-1.97,5.97-5.73,7.01ZM112.2,4.67l-104.04.06,51.94,45.32L112.2,4.67ZM115.73,7.82l-52.31,44.88c-2.51,1.8-5.6,1.49-7.7-.74L4.64,7.89l-.13,73.17,107.69.08c2.81.06,3.84-1.87,3.82-4.55l-.29-68.77Z"/>
  </g>
</svg>