<?xml version="1.0" encoding="UTF-8"?>
<svg id="Layer_2" data-name="Layer 2" xmlns="http://www.w3.org/2000/svg" viewBox="0 0 125.95 98.69">
  <g id="Layer_1-2" data-name="Layer 1">
    <g>
      <path d="M95.78,39.79c-.43-11.57-4.23-21.34-11.78-27.6-8.84-7.31-19.78-9.83-30.72-6.28-12.8,4.14-21.43,15.19-23.29,28.99-12.38-1.41-22.86,6.36-25.26,17.95s5.77,23.53,18.03,25.29c6.06.87,15.55-.98,16.57,1.29.57,1.28-.36,3.26-2.15,3.27l-12.03.08C10.68,82.89-.36,70.23,0,56.36s11.39-25.58,26.35-25.88C30.04,12.78,45.51-.61,64.18.02c19.07.64,33.83,15.5,35.54,34.54,14.5-1.57,26.14,9.17,26.23,23.48.07,12.25-7.95,22.31-20.39,24.23-2.92.45-15.78,1.68-16.91-1.45-.42-1.18.9-2.33,2.53-2.35l11.9-.15c11.5-.15,19.98-11.2,18.42-22.67-1.67-12.27-13.18-19.64-25.72-15.87Z"/>
      <path d="M80.03,69.56c-5.24,5.27-9.98,10.54-15.82,15.72-5.93-5.09-10.48-10.51-15.82-15.69-.8-.78-.19-2.22.29-2.81,2.67-3.22,9.36,8.46,13.39,10.16l.21-37.03c0-1.07,1.03-1.75,1.55-1.93.8-.27,2.36.68,2.37,2.05l.38,36.86c4.05-2.23,10.62-12.25,12.86-10.62.95.69,1.61,2.26.59,3.29Z"/>
      <path d="M87.69,94.19c1.19-1.79.75-6.01,3.54-4.93,2.23.87,2.27,8.69-.19,9.03l-53.56.4c-2.29-1.8-2.6-8.02-.34-9.38,2.55-1.54,2.97,2.47,2.91,4.95l47.65-.07Z"/>
    </g>
  </g>
</svg>