<?xml version="1.0" encoding="UTF-8"?>
<svg id="Layer_2" data-name="Layer 2" xmlns="http://www.w3.org/2000/svg" viewBox="0 0 116.12 106.05">
  <g id="Layer_1-2" data-name="Layer 1">
    <g>
      <path d="M97.31,54.71c0-1.93,1.44-3.29,2.4-3.3.85,0,2.27,1.43,2.27,2.81l.02,41.82c0,4.9-3.08,9.42-8.16,9.72-8.37.49-16.58.24-25.44.04l-.51-33.64c-6.77-.12-13.4-.71-20.01.27l-.31,33.06c-8.64.91-16.71.47-25.13.37-4.73-.06-8.47-4.05-8.46-8.73l.14-43.82c0-1.01,1.25-1.74,1.7-2.02.65-.41,2.32.68,2.33,2.01l.24,44.64c.03,6.49,19.86,3.07,24.79,3.4l.72-33.19c9.79-.32,18.67-.59,28.16.1l.34,33.07c6.95.62,13.87.33,20.95.15,2.63-.07,4.07-1.78,4.06-4.28l-.11-42.48Z"/>
      <path d="M95.74,32.37l18.99,18.25c.71.68,1.29,1.44,1.38,2.08.14,1.01-.79,1.94-1.47,2.18-1.07.37-2.19-.41-3.07-1.24L61.48,5.89c-1.89-1.8-4.94-1.96-6.84-.15L4.13,53.86c-1.1,1.05-2.07,1.77-3.29,1.07-.73-.41-1.33-2.55-.25-3.57L51.52,2.6c3.97-3.8,9.42-3.2,13.02.24l26.54,25.38c.67-5.08.87-9.44.13-14.25-.33-2.14-7.05.46-7.45-2.39-.56-3.96,8.3-3.38,11.64-2.28l.34,23.07Z"/>
    </g>
  </g>
</svg>