<?xml version="1.0" encoding="UTF-8"?>
<svg id="Layer_2" data-name="Layer 2" xmlns="http://www.w3.org/2000/svg" viewBox="0 0 130.92 135.01">
  <g id="Layer_1-2" data-name="Layer 1">
    <g>
      <path d="M102.23,54.72c1.29-.83,2.17-1.23,2.96-1.02,1.14.31,1.77,1.5,1.78,3l.11,17.77,23.6.03.24,60.51-130.78-.03-.14-59.32,34.22-21.66c6.54-3.64,2.25,15.35,3.94,19.46l31.02-19.51c6.31-3.97,2.19,14.82,3.9,19.46l29.16-18.69ZM126.49,130.74l.2-51.94-23.75-.16-.39-18.44-33.05,20.14-1.22-20.51-30.27,18.81c-7.98,4.96-2.61-12.51-4.63-18.52l-28.83,18.02v52.74s121.94-.13,121.94-.13Z"/>
      <path d="M116.59,16.86c-5.01,0-8.42.43-12.38-.04l-1.65,31.27c-.06,1.22-1.22,2.21-1.82,2.74-.51.45-2.42.79-2.37-.4l1.42-32.76c.25-5.78-1.23-11.24.23-17.04,7.03-.81,14.17-.83,20.86-.15,2.26,5.85-.03,11.36.25,17.26l2.38,51.54c-.32.92-4.07,1.05-4.11.13l-2.79-52.55ZM116.89,12.61c.48-3.73.43-5.81-.13-8.36l-12.42-.07c-.93,2.74-.77,5.26-.26,8.32l12.81.12Z"/>
      <path d="M61.33,115.81c-5.5,1.47-10.63,1.11-16.19.51-.62-5.73-.52-10.63-.08-16.36,5.32-.96,10.35-.85,15.96-.11.8,5.3.34,9.98.31,15.96ZM56.89,112.35c.31-3.55.5-5.74-.16-8.5-2.72-.54-4.97-.41-7.46.01-.27,3.09-.28,5.51.03,8.61,2.51.33,4.77.57,7.6-.12Z"/>
      <path d="M34.87,116.25c-5.63.76-10.52.71-15.95.17-.9-5.67-.12-10.68-.06-16.55,5.58-.56,10.53-.84,16.04.01.31,5.51.29,10.19-.04,16.37ZM30.92,112.11c.02-3.33.17-5.42-.14-8.12-2.71-.54-4.98-.49-7.7-.14-.3,3.01-.33,5.53.17,8.49,2.61.52,4.94.65,7.67-.22Z"/>
      <path d="M112.82,116.22c-5.77.78-10.83,1.02-16.22-.27-.32-5.6-.26-10.52.15-16.11,5.53-.59,10.45-.62,15.87.01.92,5.44.62,10.16.2,16.37ZM108.98,111.78l-.36-7.88c-2.61-.49-4.84-.56-7.52,0-.5,2.93-.38,5.39-.1,8.24,2.85.58,5.55.9,7.98-.35Z"/>
      <path d="M86.79,116.1c-5.56.94-10.2.76-15.67.31-1.1-5.58-.94-10.88-.07-16.48,5.41-.8,10.25-.92,15.61-.02.85,5.36.6,10.18.12,16.19ZM82.75,112.12c.08-3.32.2-5.48-.1-8.2-2.66-.44-4.85-.65-7.58-.06-.46,3-.29,5.49-.06,8.38,2.67.69,4.93.66,7.74-.11Z"/>
    </g>
  </g>
</svg>